<!-- Generator: Adobe Illustrator 19.0.0, SVG Export Plug-In  -->
<svg version="1.1"
	 xmlns="http://www.w3.org/2000/svg" xmlns:xlink="http://www.w3.org/1999/xlink" xmlns:a="http://ns.adobe.com/AdobeSVGViewerExtensions/3.0/"
	 x="0px" y="0px" width="352.1px" height="815.6px" viewBox="0 0 352.1 815.6" style="enable-background:new 0 0 352.1 815.6;"
	 xml:space="preserve">
<style type="text/css">
	.st0{fill:#F7D2C6;}
	.st1{fill:#2B2B2B;}
	.st2{fill:#96C460;}
	.st3{fill:#4C563D;}
	.st4{fill:#566344;}
	.st5{fill:#FFFFFF;}
	.st6{fill:#130700;}
	.st7{fill:#D34848;}
	.st8{fill:#E8E8E8;}
</style>
<defs>
</defs>
<g id="XMLID_130_">
	<circle id="XMLID_134_" class="st0" cx="175.1" cy="123.5" r="68.6"/>
	<path id="XMLID_131_" class="st1" d="M175.1,196.9c-40.5,0-73.4-32.9-73.4-73.4c0-40.5,32.9-73.4,73.4-73.4s73.4,32.9,73.4,73.4
		C248.5,163.9,215.5,196.9,175.1,196.9z M175.1,59.7c-35.1,0-63.7,28.6-63.7,63.7c0,35.1,28.6,63.7,63.7,63.7s63.7-28.6,63.7-63.7
		C238.8,88.3,210.2,59.7,175.1,59.7z"/>
</g>
<g id="XMLID_125_">
	<path id="XMLID_129_" class="st2" d="M172.9,38.6c19.2-12.7,39-1.4,40,0c0,0,26.8,29.8-37.8,28.4s-43.7-28.5-43.7-28.5
		s15.9-10.6,40,0"/>
	<path id="XMLID_126_" class="st1" d="M179.6,71.9c-1.5,0-3.1,0-4.6-0.1c-28.6-0.7-45-6.2-50.1-17c-4.6-9.7,2.4-19,2.7-19.3l0.5-0.6
		l0.7-0.4c0.7-0.5,17.9-11.5,43.3-1c19.7-11.7,40.5-2.2,44.5,1.9l0,0c0.4,0.5,10.3,11.6,5.4,22.3C217.5,67.2,203.7,71.9,179.6,71.9z
		 M134.8,42.1c-0.9,1.5-2.8,5.2-1.2,8.6c1.5,3.2,8.7,10.7,41.5,11.4c30.4,0.7,36.6-5.7,37.9-8.5c1.9-4.1-2.3-10.1-3.7-11.7
		c-2.8-2-18.7-9.3-33.8,0.7c-1.2,0.8-2.6,1-3.9,0.6c-0.8,0.1-1.5-0.1-2.3-0.4C150.8,34.7,137.9,40.4,134.8,42.1z"/>
</g>
<g id="XMLID_122_">
	<path id="XMLID_124_" class="st2" d="M147.3,54.6c-84.4-72.2-94.9,30-94.9,30S7.6,105.7,4.9,147.9s71.2,63.3,71.2,63.3
		s119.2,59.7,197.9,0c0,0,73.8-21.1,71.2-63.3c-2.6-42.2-47.5-63.3-47.5-63.3s-10.5-102.2-94.9-30"/>
	<path id="XMLID_123_" class="st1" d="M187.4,242.5c-13.6,0-27.9-1.4-42.7-4.2c-37.8-7.1-66.4-20.7-70.3-22.6
		c-6.9-2-77-23.8-74.3-68.1c2.5-39.2,38-60.9,47.8-66.1c1.5-10,8.4-44.9,33.3-54.9c18.4-7.4,41.7,0.8,69.2,24.3l-6.3,7.4
		c-24.5-21-44.5-28.6-59.3-22.7c-23.2,9.3-27.6,49.1-27.6,49.5l-0.3,2.7L54.5,89c-0.4,0.2-42.3,20.5-44.7,59.2
		c-2.4,37.8,67,58.1,67.7,58.3l0.8,0.3c1.2,0.6,117.4,57.6,192.8,0.5l0.7-0.5l0.9-0.2c0.7-0.2,70.1-20.5,67.7-58.3
		c-2.4-38.9-44.3-59-44.7-59.2l-2.5-1.2l-0.3-2.7c0-0.4-4.5-40.3-27.6-49.5c-14.8-5.9-34.8,1.7-59.3,22.7l-6.3-7.4
		c27.5-23.5,50.8-31.7,69.2-24.3c24.9,10,31.8,44.8,33.3,54.9c9.8,5.2,45.4,26.9,47.8,66.1c2.7,43.5-64.8,65.3-73.8,68
		C252.3,233.4,222.1,242.5,187.4,242.5z"/>
</g>
<g id="XMLID_117_">
	<path id="XMLID_121_" class="st3" d="M71.3,99.1c-2.4-0.3,47.1,15.8,77.1,15.8c14,0-15.5,27.7-45.2,25.7S63.4,109,71.3,99.1"/>
	<path id="XMLID_118_" class="st1" d="M106.4,143.2c-1.1,0-2.2,0-3.3-0.1c-15.4-1-28.2-9.6-34-22.9c-3.5-7.9-3.7-15.9-0.6-21.1
		l0-0.1l1.7-2.4l5.8,0.7L75.3,98c11,3.6,49.2,14.5,73.2,14.5c3.4,0,4.8,1.4,5.5,2.5c1,1.8,0.6,4-1,6.5
		C147.9,129.4,127.9,143.2,106.4,143.2z M72.3,102c-1.9,3.8-1.5,10,1.2,16.1c5.1,11.7,16.3,19.2,29.9,20.1
		c18.2,1.2,35.9-9.3,42.8-16.2c2.4-2.4,3.2-4,3.3-4.6c-0.2,0-0.5-0.1-1.1-0.1c-15.5,0-35.8-4.3-50.1-7.8
		C96.1,109,79.5,104.8,72.3,102z"/>
</g>
<g id="XMLID_112_">
	<path id="XMLID_116_" class="st4" d="M280,99.1c2.4-0.3-47.1,15.8-77.1,15.8c-14,0,15.5,27.7,45.2,25.7
		C277.7,138.6,287.9,109,280,99.1"/>
	<path id="XMLID_113_" class="st1" d="M244.9,143.2c-21.5,0-41.5-13.7-46.5-21.6c-1.6-2.5-2-4.7-1-6.5c0.6-1.2,2.1-2.5,5.5-2.5
		c24,0,62.1-10.9,73.2-14.5l-0.6-0.8l5.8-0.7l1.8,2.4l0,0.1c3,5.2,2.8,13.2-0.6,21.1c-5.9,13.3-18.6,21.9-34,22.9
		C247.1,143.1,246,143.2,244.9,143.2z M279,102c-7.2,2.8-23.8,7-26.1,7.5c-14.3,3.5-34.5,7.8-50.1,7.8c-1,0-1.4,0.2-1.4,0.2
		c0.2,0,0.8,1.7,3.6,4.5c6.9,6.9,24.6,17.4,42.8,16.2c13.6-0.9,24.8-8.4,29.9-20.1C280.5,112,280.9,105.8,279,102z"/>
</g>
<g id="XMLID_107_">
	<path id="XMLID_111_" class="st5" d="M87.8,216.4c0,0,118.3,34.7,181.8-2c0,0-32.1,56.2-90.9,50.9
		C119.9,260,107.1,245.3,87.8,216.4z"/>
	<path id="XMLID_108_" class="st1" d="M186.4,268c-2.6,0-5.2-0.1-7.9-0.4c-60.3-5.4-73.3-20.9-92.7-50l-3.7-5.5l6.4,1.9
		c1.2,0.3,118,33.9,179.9-1.8l7.8-4.5l-4.5,7.8C271.4,216.1,241,268,186.4,268z M93.5,220.4c16.8,24.4,31.2,37.6,85.5,42.4
		c43.4,3.9,72.1-27.1,83.3-42c-26.3,12-62.4,15.6-107.6,10.7C127.4,228.6,104.2,223.1,93.5,220.4z"/>
</g>
<g id="XMLID_102_">
	<path id="XMLID_106_" class="st5" d="M108.4,479.3h70.2V251.4c0,0-26.2,0.1-41.2-17.8l-41.5-14c0,0-130.9,142.7-42,259.8H108.4
		c-27.4-32.3-59-76,5.7-194C114.1,285.3,34.6,408.7,108.4,479.3z"/>
	<path id="XMLID_103_" class="st6" d="M183.4,484.1h-132l-1.5-1.9c-90.3-119,41-264.5,42.3-266l2.1-2.3l45.8,15.5l0.9,1
		c13.3,15.9,37.3,16.1,37.5,16.1l4.8,0l0,4.8V484.1z M110.6,474.4h63.1V256c-8.6-0.9-26.8-4.3-39.2-18.2l-37.2-12.6
		c-16,18.7-117.7,145.2-41.1,249.3h40.9c-8.7-10.3-14.7-21.4-18.6-32.9c-9.8-24.7-11.5-56.5,5.4-102.6
		c10.9-32.3,25.7-55.7,26.1-56.2l8.3,5c-13.5,24.7-22.7,46-28.6,64.6c-8.1,27.8-12,60.6-0.7,89.7C95,455.5,103.3,465.7,110.6,474.4z
		"/>
</g>
<g id="XMLID_97_">
	<path id="XMLID_101_" class="st5" d="M249,479.3h-70.2V251.4c0,0,26.2,0.1,41.2-17.8l41.3-15c0,0,131.1,143.7,42.2,260.8H249
		c27.4-32.3,59-76-5.7-194C243.3,285.3,322.8,408.7,249,479.3z"/>
	<path id="XMLID_98_" class="st6" d="M306,484.1H174V246.5l4.9,0c0.2,0,24.2-0.2,37.5-16.1l0.8-1l45.6-16.6l2.2,2.4
		c1.3,1.5,132.7,148,42.4,267L306,484.1z M260.2,474.4h40.9c76.6-104.1-25-231.2-41.2-250.2l-37,13.5
		c-12.4,13.9-30.6,17.4-39.2,18.3v218.5h63.1c7.4-8.8,15.8-19.1,21.7-32.7c11-28.7,7.4-60.7-0.4-88.2c-5.8-18.9-15.1-40.7-29-65.9
		l8.3-5c0.3,0.5,15.2,23.9,26.1,56.2c16.8,46.2,15.2,77.9,5.4,102.6C274.9,453.1,268.9,464.2,260.2,474.4z"/>
</g>
<g id="XMLID_93_">
	<path id="XMLID_94_" class="st6" d="M202,437.2c-4.4,0-7.9-3.5-7.9-7.9c0-4.4,3.5-7.9,7.9-7.9c4.4,0,7.9,3.5,7.9,7.9
		C209.9,433.7,206.4,437.2,202,437.2z M202,426.3c-1.7,0-3.1,1.4-3.1,3.1s1.4,3.1,3.1,3.1c1.7,0,3.1-1.4,3.1-3.1
		S203.7,426.3,202,426.3z"/>
</g>
<g id="XMLID_89_">
	<path id="XMLID_90_" class="st6" d="M202,382.2c-4.4,0-7.9-3.5-7.9-7.9c0-4.4,3.5-7.9,7.9-7.9c4.4,0,7.9,3.5,7.9,7.9
		C209.9,378.7,206.4,382.2,202,382.2z M202,371.3c-1.7,0-3.1,1.4-3.1,3.1s1.4,3.1,3.1,3.1c1.7,0,3.1-1.4,3.1-3.1
		S203.7,371.3,202,371.3z"/>
</g>
<g id="XMLID_85_">
	<path id="XMLID_86_" class="st6" d="M202,336.3c-4.4,0-7.9-3.5-7.9-7.9c0-4.4,3.5-7.9,7.9-7.9c4.4,0,7.9,3.5,7.9,7.9
		C209.9,332.7,206.4,336.3,202,336.3z M202,325.3c-1.7,0-3.1,1.4-3.1,3.1c0,1.7,1.4,3.1,3.1,3.1c1.7,0,3.1-1.4,3.1-3.1
		C205.1,326.7,203.7,325.3,202,325.3z"/>
</g>
<g id="XMLID_81_">
	<path id="XMLID_82_" class="st6" d="M151.7,437.2c-4.4,0-7.9-3.5-7.9-7.9c0-4.4,3.5-7.9,7.9-7.9s7.9,3.5,7.9,7.9
		C159.6,433.7,156.1,437.2,151.7,437.2z M151.7,426.3c-1.7,0-3.1,1.4-3.1,3.1s1.4,3.1,3.1,3.1c1.7,0,3.1-1.4,3.1-3.1
		S153.4,426.3,151.7,426.3z"/>
</g>
<g id="XMLID_77_">
	<path id="XMLID_78_" class="st6" d="M151.7,382.2c-4.4,0-7.9-3.5-7.9-7.9c0-4.4,3.5-7.9,7.9-7.9s7.9,3.5,7.9,7.9
		C159.6,378.7,156.1,382.2,151.7,382.2z M151.7,371.3c-1.7,0-3.1,1.4-3.1,3.1s1.4,3.1,3.1,3.1c1.7,0,3.1-1.4,3.1-3.1
		S153.4,371.3,151.7,371.3z"/>
</g>
<g id="XMLID_73_">
	<path id="XMLID_74_" class="st6" d="M151.7,336.3c-4.4,0-7.9-3.5-7.9-7.9c0-4.4,3.5-7.9,7.9-7.9s7.9,3.5,7.9,7.9
		C159.6,332.7,156.1,336.3,151.7,336.3z M151.7,325.3c-1.7,0-3.1,1.4-3.1,3.1c0,1.7,1.4,3.1,3.1,3.1c1.7,0,3.1-1.4,3.1-3.1
		C154.8,326.7,153.4,325.3,151.7,325.3z"/>
</g>
<g id="XMLID_68_">
	<path id="XMLID_72_" class="st5" d="M22.9,183.6c0,0,157.7,60.6,304.3,0C327.2,183.6,201.1,295.1,22.9,183.6z"/>
	<path id="XMLID_69_" class="st6" d="M180.4,237.7c-45.9,0-100.2-12.5-160.1-50l4.3-8.6c1.6,0.6,157.6,59.2,300.7,0l26.7-11
		l-21.7,19.2C329.6,188,271.8,237.7,180.4,237.7z M64.4,200.8c102.5,47.9,183.9,22.5,226.6,0.4C202.6,225.9,114.9,212.9,64.4,200.8z
		"/>
</g>
<g id="XMLID_66_">
	<polygon id="XMLID_67_" class="st7" points="247.7,45.9 246,36.3 269.8,31.9 264.9,5.3 274.4,3.5 281.1,39.7 	"/>
</g>
<g id="XMLID_64_">
	<polygon id="XMLID_65_" class="st7" points="290.6,37.9 283.9,1.8 293.5,0 298.4,26.6 322.2,22.2 324,31.7 	"/>
</g>
<g id="XMLID_62_">
	<polygon id="XMLID_63_" class="st7" points="279.5,84.4 274.6,57.7 250.7,62.2 249,52.6 282.3,46.4 289,82.6 	"/>
</g>
<g id="XMLID_57_">
	<path id="XMLID_61_" class="st1" d="M179.1,534c0,0-19.4,77.3-21.8,88.5c-4,18.8-0.9,80.6-4,90.3s-4.5,9.1-4.5,9.1h-21.9H82.6h-7.7
		c-10.1,0-17.5-8.9-16.3-18.9c0.4-3,0.3-5.9-0.4-8.4c-3.1-9.7,3.1-67.7,4-79.2c1.7-21,1.6-114.1,1.6-114.1l-6.5-22.5h242.9
		l-6.5,22.5c0,0-0.1,93.1,1.6,114.1c0.9,11.5,7.1,69.5,4,79.2c-0.8,2.4-0.8,5.3-0.4,8.4c1.2,10-6.2,18.9-16.3,18.9h-7.7h-44.2h-21.9
		c0,0-1.5,0.6-4.5-9.1s0-71.5-4-90.3c-2.4-11.2-21.8-88.5-21.8-88.5"/>
	<path id="XMLID_58_" class="st6" d="M208.7,727.3l-2.1-1c-2.2-1.1-4.1-3.4-6.8-12c-1.6-5-1.7-18.3-1.9-39.6
		c-0.1-19.5-0.2-41.6-2.3-51.1c-1.6-7.5-10.9-45-16.8-68.6c-5.9,23.7-15.2,61.2-16.8,68.6c-2,9.5-2.1,31.6-2.3,51.1
		c-0.1,21.3-0.3,34.6-1.9,39.6c-2.7,8.6-4.6,10.9-6.8,12l-1.9,0.9l-1.2-0.4H74.9c-6.1,0-11.7-2.5-15.8-7.1c-4.1-4.7-6.1-11-5.3-17.3
		c0.3-2.6,0.2-4.8-0.2-6.3c-2.4-7.6-0.5-34.7,3.1-73c0.3-3.5,0.6-6.3,0.7-8c1.6-19.7,1.6-104.5,1.6-113l-8.1-28h255.8l-8.1,28
		c0,8.5,0,93.4,1.6,113c0.1,1.7,0.4,4.5,0.7,8.1c3.6,38.3,5.5,65.4,3.1,73c-0.5,1.5-0.6,3.7-0.2,6.3c0.8,6.3-1.2,12.6-5.3,17.3
		c-4,4.6-9.7,7.1-15.8,7.1h-72.9L208.7,727.3z M211.1,717.1h71.6c3.3,0,6.3-1.4,8.5-3.8c2.3-2.6,3.4-6.1,2.9-9.7
		c-0.5-4-0.3-7.5,0.6-10.4c2.3-7.3-2.1-53.9-3.5-69.2c-0.3-3.6-0.6-6.4-0.7-8.2c-1.7-21-1.6-110.7-1.6-114.5l0.2-1.3l4.7-16.3h-230
		l4.9,17.6c0,3.8,0.1,93.5-1.6,114.5c-0.1,1.7-0.4,4.6-0.7,8.2c-1.4,15.3-5.8,61.9-3.5,69.2c0.9,2.9,1.1,6.4,0.6,10.4
		c-0.4,3.6,0.6,7.1,2.9,9.7c2.2,2.5,5.2,3.8,8.5,3.8h71.6c0.5-1,1.2-2.7,2.1-5.7c1.2-3.8,1.3-21.3,1.4-36.7
		c0.1-21,0.2-42.6,2.5-53.1c2.4-11.2,21-85.5,21.8-88.7l4.5,1.1l4.5-1.1c0.8,3.2,19.4,77.5,21.8,88.7c2.2,10.5,2.3,32.1,2.5,53.1
		c0.1,15.4,0.2,32.9,1.4,36.7C209.9,714.4,210.7,716.1,211.1,717.1z"/>
</g>
<g id="XMLID_55_">
	<polygon id="XMLID_56_" class="st7" points="298.6,80.8 291.9,44.7 325.3,38.5 327,48 303.2,52.4 308.1,79.1 	"/>
</g>
<g id="XMLID_50_">
	<circle id="XMLID_54_" class="st0" cx="78.4" cy="494.6" r="31.9"/>
	<path id="XMLID_51_" class="st6" d="M78.4,531.4c-20.3,0-36.8-16.5-36.8-36.8c0-20.3,16.5-36.8,36.8-36.8
		c20.3,0,36.8,16.5,36.8,36.8C115.2,514.9,98.7,531.4,78.4,531.4z M78.4,467.5c-14.9,0-27.1,12.2-27.1,27.1
		c0,14.9,12.2,27.1,27.1,27.1c14.9,0,27.1-12.2,27.1-27.1C105.5,479.7,93.4,467.5,78.4,467.5z"/>
</g>
<g id="XMLID_45_">
	<circle id="XMLID_49_" class="st0" cx="275.6" cy="494.6" r="31.9"/>
	<path id="XMLID_46_" class="st6" d="M275.6,531.4c-20.3,0-36.8-16.5-36.8-36.8c0-20.3,16.5-36.8,36.8-36.8
		c20.3,0,36.8,16.5,36.8,36.8C312.3,514.9,295.8,531.4,275.6,531.4z M275.6,467.5c-14.9,0-27.1,12.2-27.1,27.1
		c0,14.9,12.2,27.1,27.1,27.1c14.9,0,27.1-12.2,27.1-27.1C302.6,479.7,290.5,467.5,275.6,467.5z"/>
</g>
<g id="XMLID_40_">
	<path id="XMLID_44_" class="st8" d="M70.1,766.8c0,0-9.5,21.5,8,35.5c0,0,38.6,22.7,72.3-5.8c0,0,10-16.5-0.3-31.3L70.1,766.8z"/>
	<path id="XMLID_41_" class="st6" d="M111.8,815.6c-20.4,0-36-9-36.3-9.2L75,806c-16.1-12.8-13.2-32.6-9.4-41.2l1.2-2.8l85.7-1.7
		l1.5,2.1c11.9,17.2,0.9,35.8,0.4,36.5l-0.4,0.7l-0.6,0.5C139.5,812,124.7,815.6,111.8,815.6z M80.8,798.2c3.6,2,36.4,19.2,65.8-4.9
		c1.4-2.7,6.2-13.2,0.9-23.2l-73.9,1.5C71.9,777.1,70,789.5,80.8,798.2z"/>
</g>
<g id="XMLID_35_">
	<path id="XMLID_39_" class="st8" d="M294.9,766.8c0,0,9.5,21.5-8,35.5c0,0-38.6,22.7-72.3-5.8c0,0-10-16.5,0.3-31.3L294.9,766.8z"
		/>
	<path id="XMLID_36_" class="st6" d="M253.1,815.6c-12.9,0-27.7-3.6-41.6-15.4l-0.6-0.5l-0.4-0.7c-0.5-0.8-11.5-19.4,0.4-36.5
		l1.5-2.1l85.7,1.7l1.2,2.8c3.8,8.6,6.8,28.4-9.4,41.2l-0.6,0.4C289.1,806.6,273.5,815.6,253.1,815.6z M218.4,793.3
		c29.4,24.1,62.1,6.9,65.8,4.9c10.7-8.8,8.8-21.1,7.2-26.7l-73.9-1.5C212.2,780.1,217,790.6,218.4,793.3z"/>
</g>
<g id="XMLID_30_">
	<path id="XMLID_34_" class="st0" d="M74.9,722l-4.7,41c-1,8.4,3.1,16.6,10.5,20.8c14.6,8.4,40.1,18.2,61.7,1.4
		c6-4.7,8.9-12.4,7.7-19.9l-6.8-43.2H74.9z"/>
	<path id="XMLID_31_" class="st6" d="M115.6,799.2c-14.8,0-28.5-6.1-37.3-11.2c-9-5.2-14.1-15.2-12.9-25.6l5.2-45.3h76.8l7.4,47.3
		c1.5,9.4-2.2,18.8-9.6,24.5C135.7,796.5,125.4,799.2,115.6,799.2z M79.3,726.8L75,763.5c-0.8,6.5,2.4,12.8,8.1,16.1
		c15.4,8.8,37.6,16.3,56.3,1.7c4.6-3.6,6.9-9.5,5.9-15.4l-6.2-39.1H79.3z"/>
</g>
<g id="XMLID_25_">
	<path id="XMLID_29_" class="st0" d="M289.1,722l4.7,41c1,8.4-3.1,16.6-10.5,20.8c-14.6,8.4-40.1,18.2-61.7,1.4
		c-6-4.7-8.9-12.4-7.7-19.9l6.8-43.2H289.1z"/>
	<path id="XMLID_26_" class="st6" d="M248.5,799.2c-9.8,0-20.1-2.7-29.8-10.2c-7.4-5.7-11-15.1-9.6-24.5l7.4-47.3h76.8l5.2,45.3
		c1.2,10.3-3.8,20.4-12.9,25.6C277,793.1,263.3,799.2,248.5,799.2z M224.9,726.8l-6.2,39.1c-0.9,5.9,1.3,11.8,5.9,15.4
		c18.7,14.6,40.9,7.1,56.3-1.7c5.6-3.3,8.8-9.6,8.1-16.1l-4.2-36.7H224.9z"/>
</g>
<g id="XMLID_20_">
	<path id="XMLID_24_" class="st8" d="M70.7,758.2c0,0,36.6-13.5,78.2,0l2.8-12.4c0,0-37.6-18.6-85.8,0L70.7,758.2z"/>
	<path id="XMLID_21_" class="st6" d="M152.6,764.4l-5.1-1.6c-39.5-12.8-74.7-0.2-75.1-0.1l-4.5,1.6L59.6,743l4.6-1.8
		c49.7-19.1,88.1-0.6,89.7,0.2l3.4,1.7L152.6,764.4z M72.2,748.6l1.4,3.5c10.8-3.1,39.3-9.2,71.8-0.2l0.7-3.3
		C136.5,745.1,107.6,736.6,72.2,748.6z"/>
</g>
<g id="XMLID_15_">
	<path id="XMLID_19_" class="st8" d="M215.8,758.2c0,0,36.6-13.5,78.2,0l2.8-12.4c0,0-37.6-18.6-85.8,0L215.8,758.2z"/>
	<path id="XMLID_16_" class="st6" d="M297.6,764.4l-5.1-1.6c-39.4-12.8-74.7-0.2-75.1-0.1l-4.5,1.6l-8.4-21.3l4.6-1.8
		c49.7-19.1,88.1-0.6,89.7,0.2l3.4,1.7L297.6,764.4z M217.3,748.6l1.4,3.5c10.8-3.1,39.3-9.2,71.8-0.2l0.7-3.3
		C281.5,745.1,252.6,736.6,217.3,748.6z"/>
</g>
</svg>
